<svg xmlns="http://www.w3.org/2000/svg" viewBox="0 0 512 512">
  <defs>
    <linearGradient id="bg" x1="0" y1="0" x2="1" y2="1">
      <stop offset="0%" stop-color="#8b7ec8" />
      <stop offset="100%" stop-color="#4aada8" />
    </linearGradient>
    <linearGradient id="sun" x1="0" y1="0" x2="0" y2="1">
      <stop offset="0%" stop-color="#ffe58a" />
      <stop offset="100%" stop-color="#ffc65c" />
    </linearGradient>
  </defs>

  <rect width="512" height="512" rx="120" fill="url(#bg)" />
  <circle cx="380" cy="130" r="44" fill="url(#sun)" opacity="0.95" />
  <path d="M56 324 C144 260 246 260 456 324 L456 430 L56 430 Z" fill="#c6e7b1" />
  <path d="M56 292 C130 256 226 250 456 292 L456 332 C224 300 136 304 56 338 Z" fill="#9ed4cc" />

  <path d="M102 332 L102 286 C106 260 144 236 178 226 L244 212 L322 212 C370 212 404 232 430 264 L446 282 L446 332 Z" fill="#5ec1bb" />
  <path d="M120 284 C152 248 224 230 318 234 C356 236 388 250 412 276 Z" fill="#c7ecfb" opacity="0.9" />
  <circle cx="170" cy="350" r="42" fill="#2f2f2f" />
  <circle cx="382" cy="350" r="42" fill="#2f2f2f" />
  <circle cx="170" cy="350" r="24" fill="#7f7f7f" />
  <circle cx="382" cy="350" r="24" fill="#7f7f7f" />

  <text x="256" y="166" text-anchor="middle" font-size="68" font-family="Segoe UI Emoji, Apple Color Emoji, Noto Color Emoji">🇪🇸</text>
  <text x="256" y="398" text-anchor="middle" font-size="44" font-family="Arial, sans-serif" font-weight="700" fill="#ffffff">TRIP</text>
</svg>
